<?xml version="1.0" encoding="utf-8"?>
<!-- Generator: Adobe Illustrator 24.1.0, SVG Export Plug-In . SVG Version: 6.00 Build 0)  -->
<svg version="1.1" id="Layer_1" xmlns="http://www.w3.org/2000/svg" xmlns:xlink="http://www.w3.org/1999/xlink" x="0px" y="0px"
	 viewBox="0 0 50 50" style="enable-background:new 0 0 50 50;" xml:space="preserve">
<style type="text/css">
	.st0{opacity:0.6;}
</style>
<g class="st0">
	<path d="M27.9,8.4V5.5H11.3v2.9c0,0,0,0,0,0.1L27.9,8.4C28,8.5,27.9,8.4,27.9,8.4z"/>
	<path d="M7.8,2.4h0.7c0.7,0,1.3,0.6,1.3,1.3v5c0,0.7-0.6,1.3-1.3,1.3H7.8c-0.7,0-1.3-0.6-1.3-1.3v-5C6.4,3,7,2.4,7.8,2.4z"/>
	<path d="M30.8,2.4h0.7c0.7,0,1.3,0.6,1.3,1.3v5c0,0.7-0.6,1.3-1.3,1.3h-0.7c-0.7,0-1.3-0.6-1.3-1.3v-5C29.4,3,30,2.4,30.8,2.4z"/>
	<path d="M38.1,47.6l-6.4-7.9l-10.1,0.8l5.5-8.5l-3.9-9.4l9.8,2.6l7.7-6.6l0.5,10.1l8.7,5.3l-9.5,3.6L38.1,47.6z M33.1,36.6l3.6,4.4
		l1.3-5.5l5.3-2l-4.9-3l-0.3-5.7l-4.3,3.7L28.3,27l2.2,5.3l-3.1,4.8L33.1,36.6z"/>
	<path d="M34.3,5.5v2.9c0,0,0,0,0,0.1c1.1,0.1,2,1,2,2.1v3H3v-3c0-1.1,0.9-2,2-2.1c0,0,0-0.1,0-0.1V5.5c-2.8,0-5,2.3-5,5.1v23.8
		c0,2.8,2.3,5.1,5.1,5.1h15.3l1.9-3H5.1c-1.1,0-2.1-0.9-2.1-2.1V16.5h33.3v3.9l3-2.5v-7.3C39.3,7.8,37,5.5,34.3,5.5z"/>
</g>
</svg>
